<svg width="505" height="49" viewBox="0 0 505 49" fill="none" xmlns="http://www.w3.org/2000/svg">
<g filter="url(#filter0_d_192_261)">
<path d="M23.9279 32.36V6.968H7.84788V4.04H42.9359V6.968H26.8079V32.36H23.9279ZM29.4479 35.048V9.656H45.5759V1.352H5.20788V9.656H21.2879V35.048H29.4479ZM4.00788 10.856V0.151999H46.7759L51.4319 5.096V15.512H35.3039V40.904H25.0319L20.0879 36.248V15.512H8.95188L4.00788 10.856ZM63.5058 16.76H87.9378V19.64H63.5058V29.432H92.9298V32.36H60.5298V4.04H92.8818V6.968H63.5058V16.76ZM66.1458 9.656H95.5698V1.352H57.8418V35.048H95.6178V26.744H66.1458V22.28H90.5778V14.12H66.1458V9.656ZM56.6418 36.248V0.151999H96.7698L101.426 5.096V15.512H94.0818L96.4338 17.864V25.544L101.474 30.488V40.904H61.5858L56.6418 36.248ZM135.714 9.656C136.098 9.656 136.498 9.688 136.914 9.752C137.33 9.816 137.714 9.928 138.066 10.088C138.418 10.248 138.706 10.472 138.93 10.76C139.186 11.048 139.314 11.432 139.314 11.912C139.314 12.36 139.186 12.728 138.93 13.016C138.674 13.304 138.354 13.528 137.97 13.688C137.618 13.848 137.218 13.96 136.77 14.024C136.354 14.088 135.986 14.12 135.666 14.12H117.906V9.656H135.714ZM135.666 16.76C136.434 16.76 137.186 16.68 137.922 16.52C138.69 16.328 139.378 16.04 139.986 15.656C140.594 15.272 141.074 14.776 141.426 14.168C141.81 13.528 142.002 12.776 142.002 11.912C142.002 11.016 141.826 10.248 141.474 9.608C141.122 8.968 140.642 8.456 140.034 8.072C139.458 7.688 138.786 7.416 138.018 7.256C137.282 7.064 136.514 6.968 135.714 6.968H115.266V16.76H135.666ZM140.034 18.92C139.586 19.176 139.09 19.368 138.546 19.496C138.002 19.624 137.49 19.752 137.01 19.88C138.802 21.992 140.594 24.072 142.386 26.12C144.21 28.168 146.034 30.248 147.858 32.36H143.97L132.882 19.64H115.266V32.36H112.29V4.04H135.714C137.026 4.04 138.242 4.184 139.362 4.472C140.514 4.76 141.49 5.224 142.29 5.864C143.122 6.504 143.762 7.32 144.21 8.312C144.69 9.304 144.93 10.504 144.93 11.912C144.93 13.672 144.53 15.128 143.73 16.28C142.93 17.4 141.714 18.28 140.082 18.92H140.034ZM147.618 11.912C147.618 10.088 147.33 8.52 146.754 7.208C146.178 5.864 145.362 4.76 144.306 3.896C143.25 3.032 141.986 2.392 140.514 1.976C139.074 1.56 137.474 1.352 135.714 1.352H109.698V35.048H117.906V22.28H131.634L142.674 35.048H153.714L141.618 21.176C145.618 19.416 147.618 16.328 147.618 11.912ZM108.498 36.248V0.151999H135.714C136.962 0.151999 138.162 0.247999 139.314 0.439999C140.466 0.599998 141.618 0.951999 142.77 1.496C143.954 2.04 145.17 2.824 146.418 3.848C147.698 4.872 149.058 6.232 150.498 7.928C151.426 8.856 152.146 10.104 152.658 11.672C153.202 13.208 153.474 14.888 153.474 16.712C153.474 18.824 153.01 20.696 152.082 22.328C151.186 23.96 149.874 25.288 148.146 26.312C149.138 27.464 150.178 28.664 151.266 29.912C152.354 31.16 153.442 32.424 154.53 33.704C155.618 34.952 156.69 36.184 157.746 37.4C158.834 38.648 159.858 39.816 160.818 40.904H146.994L142.146 36.248L135.138 28.136H123.762V40.904H113.442L108.498 36.248ZM191.167 9.656C191.551 9.656 191.951 9.688 192.367 9.752C192.783 9.816 193.167 9.928 193.519 10.088C193.871 10.248 194.159 10.472 194.383 10.76C194.639 11.048 194.767 11.432 194.767 11.912C194.767 12.36 194.639 12.728 194.383 13.016C194.127 13.304 193.807 13.528 193.423 13.688C193.071 13.848 192.671 13.96 192.223 14.024C191.807 14.088 191.439 14.12 191.119 14.12H173.359V9.656H191.167ZM191.119 16.76C191.887 16.76 192.639 16.68 193.375 16.52C194.143 16.328 194.831 16.04 195.439 15.656C196.047 15.272 196.527 14.776 196.879 14.168C197.263 13.528 197.455 12.776 197.455 11.912C197.455 11.016 197.279 10.248 196.927 9.608C196.575 8.968 196.095 8.456 195.487 8.072C194.911 7.688 194.239 7.416 193.471 7.256C192.735 7.064 191.967 6.968 191.167 6.968H170.719V16.76H191.119ZM195.487 18.92C195.039 19.176 194.543 19.368 193.999 19.496C193.455 19.624 192.943 19.752 192.463 19.88C194.255 21.992 196.047 24.072 197.839 26.12C199.663 28.168 201.487 30.248 203.311 32.36H199.423L188.335 19.64H170.719V32.36H167.743V4.04H191.167C192.479 4.04 193.695 4.184 194.815 4.472C195.967 4.76 196.943 5.224 197.743 5.864C198.575 6.504 199.215 7.32 199.663 8.312C200.143 9.304 200.383 10.504 200.383 11.912C200.383 13.672 199.983 15.128 199.183 16.28C198.383 17.4 197.167 18.28 195.535 18.92H195.487ZM203.071 11.912C203.071 10.088 202.783 8.52 202.207 7.208C201.631 5.864 200.815 4.76 199.759 3.896C198.703 3.032 197.439 2.392 195.967 1.976C194.527 1.56 192.927 1.352 191.167 1.352H165.151V35.048H173.359V22.28H187.087L198.127 35.048H209.167L197.071 21.176C201.071 19.416 203.071 16.328 203.071 11.912ZM163.951 36.248V0.151999H191.167C192.415 0.151999 193.615 0.247999 194.767 0.439999C195.919 0.599998 197.071 0.951999 198.223 1.496C199.407 2.04 200.623 2.824 201.871 3.848C203.151 4.872 204.511 6.232 205.951 7.928C206.879 8.856 207.599 10.104 208.111 11.672C208.655 13.208 208.927 14.888 208.927 16.712C208.927 18.824 208.463 20.696 207.535 22.328C206.639 23.96 205.327 25.288 203.599 26.312C204.591 27.464 205.631 28.664 206.719 29.912C207.807 31.16 208.895 32.424 209.983 33.704C211.071 34.952 212.143 36.184 213.199 37.4C214.287 38.648 215.311 39.816 216.271 40.904H202.447L197.599 36.248L190.591 28.136H179.215V40.904H168.895L163.951 36.248ZM253.638 21.944L243.51 7.592L233.142 21.944H253.638ZM248.454 19.352H238.278L243.414 12.152L248.454 19.352ZM260.79 32.36L255.606 24.92H231.078C230.182 26.136 229.302 27.384 228.438 28.664C227.606 29.912 226.742 31.144 225.846 32.36H222.006C225.398 27.592 228.774 22.872 232.134 18.2C235.526 13.528 238.902 8.808 242.262 4.04H244.566L264.39 32.36H260.79ZM240.966 1.352L216.966 35.048H227.142L232.422 27.608H254.118L259.35 35.048H269.526L246.006 1.352H240.966ZM251.382 5.096L276.342 40.904H263.574L258.726 36.248L256.758 33.464H237.798C237.414 34.04 236.982 34.648 236.502 35.288C236.054 35.928 235.59 36.568 235.11 37.208C234.662 37.88 234.214 38.52 233.766 39.128C233.318 39.768 232.902 40.36 232.518 40.904H219.702L214.613 36.248L240.342 0.151999H246.63L251.382 5.096ZM309.761 4.04H312.641V29.432H339.761V32.36H309.761V4.04ZM307.121 35.048H342.401V26.744H315.329V1.352H307.121V35.048ZM305.921 0.151999H316.529L321.185 5.096V25.544H343.601L348.257 30.488V40.904H310.865L305.921 36.248V0.151999ZM359.24 16.76H383.672V19.64H359.24V29.432H388.664V32.36H356.264V4.04H388.616V6.968H359.24V16.76ZM361.88 9.656H391.304V1.352H353.576V35.048H391.352V26.744H361.88V22.28H386.312V14.12H361.88V9.656ZM352.376 36.248V0.151999H392.504L397.16 5.096V15.512H389.816L392.168 17.864V25.544L397.208 30.488V40.904H357.32L352.376 36.248ZM434.7 32.36L408.828 8.6V32.36H405.996V4.04H408.444L434.22 27.8V4.04H437.1V32.36H434.7ZM439.788 35.048V1.352H431.58V21.752L409.356 1.352H403.308V35.048H411.516V14.6L433.788 35.048H439.788ZM402.108 36.248V0.151999H409.788L430.38 19.016V0.151999H440.988L445.644 5.096V40.904H438.156L417.372 21.848V40.904H407.052L402.108 36.248ZM459.222 25.784C460.246 26.776 461.382 27.528 462.63 28.04C463.878 28.552 465.174 28.92 466.518 29.144C467.862 29.336 469.238 29.448 470.646 29.48C472.054 29.48 473.414 29.48 474.726 29.48C475.206 29.48 475.846 29.464 476.646 29.432C477.478 29.4 478.358 29.336 479.286 29.24C480.246 29.112 481.206 28.952 482.166 28.76C483.126 28.536 483.99 28.248 484.758 27.896C485.558 27.544 486.198 27.128 486.678 26.648C487.19 26.136 487.446 25.528 487.446 24.824C487.446 24.12 487.174 23.512 486.63 23C486.118 22.456 485.446 21.992 484.614 21.608C483.782 21.224 482.838 20.904 481.782 20.648C480.758 20.36 479.734 20.152 478.71 20.024C477.686 19.864 476.726 19.752 475.83 19.688C474.966 19.624 474.262 19.592 473.718 19.592H473.766C472.998 19.56 472.054 19.48 470.934 19.352C469.814 19.224 468.646 19.032 467.43 18.776C466.214 18.52 464.998 18.2 463.782 17.816C462.566 17.4 461.478 16.904 460.518 16.328C459.558 15.752 458.774 15.08 458.166 14.312C457.558 13.512 457.254 12.6 457.254 11.576C457.254 10.456 457.542 9.496 458.118 8.696C458.726 7.896 459.494 7.224 460.422 6.68C461.382 6.104 462.454 5.656 463.638 5.336C464.822 4.984 466.022 4.712 467.238 4.52C468.454 4.328 469.606 4.2 470.694 4.136C471.814 4.072 472.758 4.04 473.526 4.04C474.774 4.04 476.038 4.104 477.318 4.232C478.63 4.328 479.91 4.52 481.158 4.808C482.406 5.096 483.622 5.496 484.806 6.008C485.99 6.488 487.078 7.112 488.07 7.88L485.526 9.704C484.598 9.064 483.622 8.568 482.598 8.216C481.574 7.832 480.518 7.544 479.43 7.352C478.342 7.16 477.238 7.048 476.118 7.016C474.998 6.952 473.91 6.92 472.854 6.92C472.118 6.92 471.11 6.968 469.83 7.064C468.582 7.16 467.334 7.368 466.086 7.688C464.87 7.976 463.814 8.44 462.918 9.08C462.022 9.688 461.574 10.52 461.574 11.576C461.574 12.6 462.006 13.432 462.87 14.072C463.734 14.68 464.87 15.176 466.278 15.56C467.686 15.912 469.286 16.2 471.078 16.424C472.902 16.616 474.758 16.824 476.646 17.048C478.534 17.272 480.374 17.544 482.166 17.864C483.99 18.152 485.606 18.584 487.014 19.16C488.422 19.704 489.558 20.44 490.422 21.368C491.286 22.264 491.718 23.416 491.718 24.824C491.718 25.816 491.414 26.696 490.806 27.464C490.23 28.232 489.462 28.904 488.502 29.48C487.542 30.024 486.454 30.488 485.238 30.872C484.054 31.224 482.854 31.512 481.638 31.736C480.454 31.96 479.318 32.12 478.23 32.216C477.142 32.312 476.246 32.36 475.542 32.36H471.942C470.63 32.36 469.254 32.312 467.814 32.216C466.374 32.12 464.966 31.912 463.59 31.592C462.214 31.24 460.902 30.76 459.654 30.152C458.406 29.544 457.302 28.712 456.342 27.656L459.222 25.784ZM452.358 26.648C453.638 28.728 455.158 30.344 456.918 31.496C458.678 32.616 460.582 33.448 462.63 33.992C464.678 34.504 466.79 34.808 468.966 34.904C471.174 35 473.366 35.048 475.542 35.048C476.502 35.048 477.638 34.984 478.95 34.856C480.262 34.696 481.622 34.456 483.03 34.136C484.438 33.816 485.814 33.4 487.158 32.888C488.534 32.344 489.75 31.704 490.806 30.968C491.894 30.2 492.758 29.32 493.398 28.328C494.07 27.304 494.406 26.136 494.406 24.824C494.406 23.256 494.054 21.928 493.35 20.84C492.678 19.72 491.782 18.792 490.662 18.056C489.574 17.288 488.31 16.68 486.87 16.232C485.462 15.752 484.006 15.384 482.502 15.128C480.998 14.872 479.526 14.68 478.086 14.552C476.646 14.424 475.366 14.312 474.246 14.216C473.862 14.184 473.126 14.12 472.038 14.024C470.95 13.896 469.83 13.736 468.678 13.544C467.526 13.32 466.502 13.048 465.606 12.728C464.71 12.408 464.262 12.024 464.262 11.576C464.262 11.064 464.678 10.68 465.51 10.424C466.342 10.168 467.286 9.976 468.342 9.848C469.43 9.72 470.47 9.656 471.462 9.656C472.486 9.624 473.174 9.608 473.526 9.608C474.55 9.608 475.59 9.656 476.646 9.752C477.702 9.816 478.726 9.976 479.718 10.232C480.742 10.488 481.702 10.856 482.598 11.336C483.526 11.816 484.374 12.44 485.142 13.208L492.15 8.504C490.934 6.84 489.558 5.544 488.022 4.616C486.486 3.656 484.854 2.936 483.126 2.456C481.398 1.976 479.59 1.672 477.702 1.544C475.846 1.416 473.974 1.352 472.086 1.352C471.094 1.352 469.958 1.432 468.678 1.592C467.43 1.72 466.15 1.944 464.838 2.264C463.558 2.584 462.294 3 461.046 3.512C459.83 4.024 458.742 4.664 457.782 5.432C456.822 6.2 456.054 7.096 455.478 8.12C454.902 9.112 454.614 10.264 454.614 11.576C454.614 13.08 454.982 14.376 455.718 15.464C456.454 16.552 457.43 17.48 458.646 18.248C459.862 19.016 461.238 19.64 462.773 20.12C464.31 20.6 465.862 21 467.43 21.32C469.03 21.608 470.566 21.848 472.038 22.04C473.542 22.2 474.854 22.344 475.974 22.472C476.294 22.504 476.918 22.568 477.846 22.664C478.806 22.76 479.798 22.904 480.822 23.096C481.846 23.256 482.758 23.48 483.558 23.768C484.358 24.056 484.758 24.408 484.758 24.824C484.758 25.176 484.502 25.48 483.99 25.736C483.478 25.96 482.822 26.152 482.022 26.312C481.222 26.44 480.342 26.536 479.382 26.6C478.422 26.664 477.478 26.712 476.55 26.744C475.654 26.776 474.838 26.792 474.102 26.792C473.398 26.792 472.902 26.792 472.614 26.792C471.398 26.792 470.198 26.744 469.014 26.648C467.83 26.52 466.678 26.296 465.558 25.976C464.438 25.624 463.382 25.144 462.39 24.536C461.398 23.928 460.502 23.112 459.702 22.088L452.358 26.648ZM459.318 20.888L457.014 18.536C455.894 17.704 455.014 16.728 454.374 15.608C453.734 14.456 453.414 13.112 453.414 11.576C453.414 10.104 453.718 8.808 454.326 7.688C454.966 6.536 455.798 5.544 456.822 4.712C457.846 3.88 459.014 3.176 460.326 2.6C461.638 1.992 462.982 1.512 464.358 1.16C465.734 0.807999 467.094 0.551999 468.438 0.391999C469.782 0.231999 470.998 0.151999 472.086 0.151999C473.974 0.151999 475.878 0.215999 477.798 0.343997C479.718 0.439998 481.59 0.727998 483.414 1.208C485.27 1.688 487.046 2.424 488.742 3.416C490.438 4.408 492.022 5.8 493.494 7.592C494.486 8.584 495.27 9.416 495.846 10.088C496.422 10.728 496.87 11.272 497.19 11.72C497.542 12.168 497.798 12.536 497.958 12.824C498.118 13.08 498.278 13.32 498.438 13.544L492.294 17.672C492.454 17.832 492.63 17.976 492.822 18.104C493.046 18.2 493.35 18.408 493.734 18.728C494.118 19.048 494.614 19.512 495.222 20.12C495.862 20.696 496.71 21.528 497.766 22.616C498.534 23.416 499.142 24.44 499.59 25.688C500.038 26.936 500.262 28.248 500.262 29.624C500.262 31.064 499.91 32.344 499.206 33.464C498.502 34.584 497.59 35.56 496.47 36.392C495.35 37.224 494.07 37.928 492.63 38.504C491.19 39.08 489.734 39.544 488.262 39.896C486.79 40.248 485.35 40.504 483.942 40.664C482.566 40.824 481.366 40.904 480.342 40.904C478.454 40.904 476.534 40.904 474.582 40.904C472.63 40.904 470.71 40.744 468.822 40.424C466.966 40.104 465.158 39.576 463.398 38.84C461.638 38.104 460.022 36.984 458.55 35.48C457.302 34.328 456.246 33.32 455.382 32.456C454.55 31.56 453.83 30.76 453.222 30.056C452.646 29.32 452.15 28.648 451.734 28.04C451.35 27.432 450.982 26.84 450.63 26.264L459.318 20.888Z" fill="#031BBD"/>
</g>
<defs>
<filter id="filter0_d_192_261" x="0.00787354" y="0.151978" width="504.254" height="48.752" filterUnits="userSpaceOnUse" color-interpolation-filters="sRGB">
<feFlood flood-opacity="0" result="BackgroundImageFix"/>
<feColorMatrix in="SourceAlpha" type="matrix" values="0 0 0 0 0 0 0 0 0 0 0 0 0 0 0 0 0 0 127 0" result="hardAlpha"/>
<feOffset dy="4"/>
<feGaussianBlur stdDeviation="2"/>
<feComposite in2="hardAlpha" operator="out"/>
<feColorMatrix type="matrix" values="0 0 0 0 0 0 0 0 0 0 0 0 0 0 0 0 0 0 0.25 0"/>
<feBlend mode="normal" in2="BackgroundImageFix" result="effect1_dropShadow_192_261"/>
<feBlend mode="normal" in="SourceGraphic" in2="effect1_dropShadow_192_261" result="shape"/>
</filter>
</defs>
</svg>
