<svg width="281" height="97" viewBox="0 0 281 97" fill="none" xmlns="http://www.w3.org/2000/svg">
<g filter="url(#filter0_dd_144_202)">
<path d="M24.5216 32.36V6.968H8.44163V4.04H43.5296V6.968H27.4016V32.36H24.5216ZM30.0416 35.048V9.656H46.1696V1.352H5.80163V9.656H21.8816V35.048H30.0416ZM4.60163 10.856V0.151999H47.3696L52.0256 5.096V15.512H35.8976V40.904H25.6256L20.6816 36.248V15.512H9.54563L4.60163 10.856ZM88.5315 16.76V19.64H64.0995V29.432H93.5235V32.36H61.1235V4.04H93.4755V6.968H64.0995V16.76H88.5315ZM96.1635 9.656V1.352H58.4355V35.048H96.2115V26.744H66.7395V22.28H91.1715V14.12H66.7395V9.656H96.1635ZM57.2355 36.248V0.151999H97.3635L102.02 5.096V15.512H94.6755L97.0275 17.864V25.544L102.068 30.488V40.904H62.1795L57.2355 36.248ZM136.308 9.656C136.692 9.656 137.092 9.688 137.508 9.752C137.924 9.816 138.308 9.928 138.66 10.088C139.012 10.248 139.3 10.472 139.524 10.76C139.78 11.048 139.908 11.432 139.908 11.912C139.908 12.36 139.78 12.728 139.524 13.016C139.268 13.304 138.948 13.528 138.564 13.688C138.212 13.848 137.812 13.96 137.364 14.024C136.948 14.088 136.58 14.12 136.26 14.12H118.5V9.656H136.308ZM136.26 16.76C137.028 16.76 137.78 16.68 138.516 16.52C139.284 16.328 139.972 16.04 140.58 15.656C141.188 15.272 141.668 14.776 142.02 14.168C142.404 13.528 142.596 12.776 142.596 11.912C142.596 11.016 142.42 10.248 142.068 9.608C141.716 8.968 141.236 8.456 140.628 8.072C140.052 7.688 139.38 7.416 138.612 7.256C137.876 7.064 137.108 6.968 136.308 6.968H115.86V16.76H136.26ZM140.628 18.92C140.18 19.176 139.684 19.368 139.14 19.496C138.596 19.624 138.084 19.752 137.604 19.88C139.396 21.992 141.188 24.072 142.98 26.12C144.804 28.168 146.628 30.248 148.452 32.36H144.564L133.476 19.64H115.86V32.36H112.884V4.04H136.308C137.62 4.04 138.836 4.184 139.956 4.472C141.108 4.76 142.084 5.224 142.884 5.864C143.716 6.504 144.356 7.32 144.804 8.312C145.284 9.304 145.524 10.504 145.524 11.912C145.524 13.672 145.124 15.128 144.324 16.28C143.524 17.4 142.308 18.28 140.676 18.92H140.628ZM148.212 11.912C148.212 10.088 147.924 8.52 147.348 7.208C146.772 5.864 145.956 4.76 144.9 3.896C143.844 3.032 142.58 2.392 141.108 1.976C139.668 1.56 138.068 1.352 136.308 1.352H110.292V35.048H118.5V22.28H132.228L143.268 35.048H154.308L142.212 21.176C146.212 19.416 148.212 16.328 148.212 11.912ZM109.092 36.248V0.151999H136.308C137.556 0.151999 138.756 0.247999 139.908 0.439999C141.06 0.599998 142.212 0.951999 143.364 1.496C144.548 2.04 145.764 2.824 147.012 3.848C148.292 4.872 149.652 6.232 151.092 7.928C152.02 8.856 152.74 10.104 153.252 11.672C153.796 13.208 154.068 14.888 154.068 16.712C154.068 18.824 153.604 20.696 152.676 22.328C151.78 23.96 150.468 25.288 148.74 26.312C149.732 27.464 150.772 28.664 151.86 29.912C152.948 31.16 154.036 32.424 155.124 33.704C156.212 34.952 157.284 36.184 158.34 37.4C159.428 38.648 160.452 39.816 161.412 40.904H147.588L142.74 36.248L135.732 28.136H124.356V40.904H114.036L109.092 36.248ZM191.761 9.656C192.145 9.656 192.545 9.688 192.961 9.752C193.377 9.816 193.761 9.928 194.113 10.088C194.465 10.248 194.753 10.472 194.977 10.76C195.233 11.048 195.361 11.432 195.361 11.912C195.361 12.36 195.233 12.728 194.977 13.016C194.721 13.304 194.401 13.528 194.017 13.688C193.665 13.848 193.265 13.96 192.817 14.024C192.401 14.088 192.033 14.12 191.713 14.12H173.953V9.656H191.761ZM191.713 16.76C192.481 16.76 193.233 16.68 193.969 16.52C194.737 16.328 195.425 16.04 196.033 15.656C196.641 15.272 197.121 14.776 197.473 14.168C197.857 13.528 198.049 12.776 198.049 11.912C198.049 11.016 197.873 10.248 197.521 9.608C197.169 8.968 196.689 8.456 196.081 8.072C195.505 7.688 194.833 7.416 194.065 7.256C193.329 7.064 192.561 6.968 191.761 6.968H171.313V16.76H191.713ZM196.081 18.92C195.633 19.176 195.137 19.368 194.593 19.496C194.049 19.624 193.537 19.752 193.057 19.88C194.849 21.992 196.641 24.072 198.433 26.12C200.257 28.168 202.081 30.248 203.905 32.36H200.017L188.929 19.64H171.313V32.36H168.337V4.04H191.761C193.073 4.04 194.289 4.184 195.409 4.472C196.561 4.76 197.537 5.224 198.337 5.864C199.169 6.504 199.809 7.32 200.257 8.312C200.737 9.304 200.977 10.504 200.977 11.912C200.977 13.672 200.577 15.128 199.777 16.28C198.977 17.4 197.761 18.28 196.129 18.92H196.081ZM203.665 11.912C203.665 10.088 203.377 8.52 202.801 7.208C202.225 5.864 201.409 4.76 200.353 3.896C199.297 3.032 198.033 2.392 196.561 1.976C195.121 1.56 193.521 1.352 191.761 1.352H165.745V35.048H173.953V22.28H187.681L198.721 35.048H209.761L197.665 21.176C201.665 19.416 203.665 16.328 203.665 11.912ZM164.545 36.248V0.151999H191.761C193.009 0.151999 194.209 0.247999 195.361 0.439999C196.513 0.599998 197.665 0.951999 198.817 1.496C200.001 2.04 201.217 2.824 202.465 3.848C203.745 4.872 205.105 6.232 206.545 7.928C207.473 8.856 208.193 10.104 208.705 11.672C209.249 13.208 209.521 14.888 209.521 16.712C209.521 18.824 209.057 20.696 208.129 22.328C207.233 23.96 205.921 25.288 204.193 26.312C205.185 27.464 206.225 28.664 207.313 29.912C208.401 31.16 209.489 32.424 210.577 33.704C211.665 34.952 212.737 36.184 213.793 37.4C214.881 38.648 215.905 39.816 216.865 40.904H203.041L198.193 36.248L191.185 28.136H179.809V40.904H169.489L164.545 36.248ZM254.231 21.944L244.103 7.592L233.735 21.944H254.231ZM249.047 19.352H238.871L244.007 12.152L249.047 19.352ZM261.383 32.36L256.199 24.92H231.671C230.775 26.136 229.895 27.384 229.031 28.664C228.199 29.912 227.335 31.144 226.439 32.36H222.599C225.991 27.592 229.367 22.872 232.727 18.2C236.119 13.528 239.495 8.808 242.855 4.04H245.159L264.983 32.36H261.383ZM241.559 1.352L217.559 35.048H227.735L233.015 27.608H254.711L259.943 35.048H270.119L246.599 1.352H241.559ZM251.975 5.096L276.935 40.904H264.167L259.319 36.248L257.351 33.464H238.391C238.007 34.04 237.575 34.648 237.095 35.288C236.647 35.928 236.183 36.568 235.703 37.208C235.255 37.88 234.807 38.52 234.359 39.128C233.911 39.768 233.495 40.36 233.111 40.904H220.295L215.207 36.248L240.935 0.151999H247.223L251.975 5.096ZM47.9923 52.04V77.432H75.1123V80.36H45.1123V52.04H47.9923ZM77.7523 83.048V74.744H50.6803V49.352H42.4723V83.048H77.7523ZM41.2723 48.152H51.8803L56.5363 53.096V73.544H78.9523L83.6083 78.488V88.904H46.2163L41.2723 84.248V48.152ZM119.024 64.76V67.64H94.5917V77.432H124.016V80.36H91.6157V52.04H123.968V54.968H94.5917V64.76H119.024ZM126.656 57.656V49.352H88.9277V83.048H126.704V74.744H97.2317V70.28H121.664V62.12H97.2317V57.656H126.656ZM87.7277 84.248V48.152H127.856L132.512 53.096V63.512H125.168L127.52 65.864V73.544L132.56 78.488V88.904H92.6717L87.7277 84.248ZM144.18 56.6V80.36H141.348V52.04H143.796L169.572 75.8V52.04H172.452V80.36H170.052L144.18 56.6ZM175.14 49.352H166.932V69.752L144.708 49.352H138.66V83.048H146.868V62.6L169.14 83.048H175.14V49.352ZM137.46 84.248V48.152H145.14L165.732 67.016V48.152H176.34L180.996 53.096V88.904H173.508L152.724 69.848V88.904H142.404L137.46 84.248ZM194.573 73.784C195.597 74.776 196.733 75.528 197.981 76.04C199.229 76.552 200.525 76.92 201.869 77.144C203.213 77.336 204.589 77.448 205.997 77.48C207.405 77.48 208.765 77.48 210.077 77.48C210.557 77.48 211.197 77.464 211.997 77.432C212.829 77.4 213.709 77.336 214.637 77.24C215.597 77.112 216.557 76.952 217.517 76.76C218.477 76.536 219.341 76.248 220.109 75.896C220.909 75.544 221.549 75.128 222.029 74.648C222.541 74.136 222.797 73.528 222.797 72.824C222.797 72.12 222.525 71.512 221.981 71C221.469 70.456 220.797 69.992 219.965 69.608C219.133 69.224 218.189 68.904 217.133 68.648C216.109 68.36 215.085 68.152 214.061 68.024C213.037 67.864 212.077 67.752 211.181 67.688C210.317 67.624 209.613 67.592 209.069 67.592H209.117C208.349 67.56 207.405 67.48 206.285 67.352C205.165 67.224 203.997 67.032 202.781 66.776C201.565 66.52 200.349 66.2 199.133 65.816C197.917 65.4 196.829 64.904 195.869 64.328C194.909 63.752 194.125 63.08 193.517 62.312C192.909 61.512 192.605 60.6 192.605 59.576C192.605 58.456 192.893 57.496 193.469 56.696C194.077 55.896 194.845 55.224 195.773 54.68C196.733 54.104 197.805 53.656 198.989 53.336C200.173 52.984 201.373 52.712 202.589 52.52C203.805 52.328 204.957 52.2 206.045 52.136C207.165 52.072 208.109 52.04 208.877 52.04C210.125 52.04 211.389 52.104 212.669 52.232C213.981 52.328 215.261 52.52 216.509 52.808C217.757 53.096 218.973 53.496 220.157 54.008C221.341 54.488 222.429 55.112 223.421 55.88L220.877 57.704C219.949 57.064 218.973 56.568 217.949 56.216C216.925 55.832 215.869 55.544 214.781 55.352C213.693 55.16 212.589 55.048 211.469 55.016C210.349 54.952 209.261 54.92 208.205 54.92C207.469 54.92 206.461 54.968 205.181 55.064C203.933 55.16 202.685 55.368 201.437 55.688C200.221 55.976 199.165 56.44 198.269 57.08C197.373 57.688 196.925 58.52 196.925 59.576C196.925 60.6 197.357 61.432 198.221 62.072C199.085 62.68 200.221 63.176 201.629 63.56C203.037 63.912 204.637 64.2 206.429 64.424C208.253 64.616 210.109 64.824 211.997 65.048C213.885 65.272 215.725 65.544 217.517 65.864C219.341 66.152 220.957 66.584 222.365 67.16C223.773 67.704 224.909 68.44 225.773 69.368C226.637 70.264 227.069 71.416 227.069 72.824C227.069 73.816 226.765 74.696 226.157 75.464C225.581 76.232 224.813 76.904 223.853 77.48C222.893 78.024 221.805 78.488 220.589 78.872C219.405 79.224 218.205 79.512 216.989 79.736C215.805 79.96 214.669 80.12 213.581 80.216C212.493 80.312 211.597 80.36 210.893 80.36H207.293C205.981 80.36 204.605 80.312 203.165 80.216C201.725 80.12 200.317 79.912 198.941 79.592C197.565 79.24 196.253 78.76 195.005 78.152C193.757 77.544 192.653 76.712 191.693 75.656L194.573 73.784ZM187.709 74.648C188.989 76.728 190.509 78.344 192.269 79.496C194.029 80.616 195.933 81.448 197.981 81.992C200.029 82.504 202.141 82.808 204.317 82.904C206.525 83 208.717 83.048 210.893 83.048C211.853 83.048 212.989 82.984 214.301 82.856C215.613 82.696 216.973 82.456 218.381 82.136C219.789 81.816 221.165 81.4 222.509 80.888C223.885 80.344 225.101 79.704 226.157 78.968C227.245 78.2 228.109 77.32 228.749 76.328C229.421 75.304 229.757 74.136 229.757 72.824C229.757 71.256 229.405 69.928 228.701 68.84C228.029 67.72 227.133 66.792 226.013 66.056C224.925 65.288 223.661 64.68 222.221 64.232C220.813 63.752 219.357 63.384 217.853 63.128C216.349 62.872 214.877 62.68 213.437 62.552C211.997 62.424 210.717 62.312 209.597 62.216C209.213 62.184 208.477 62.12 207.389 62.024C206.301 61.896 205.181 61.736 204.029 61.544C202.877 61.32 201.853 61.048 200.957 60.728C200.061 60.408 199.613 60.024 199.613 59.576C199.613 59.064 200.029 58.68 200.861 58.424C201.693 58.168 202.637 57.976 203.693 57.848C204.781 57.72 205.821 57.656 206.813 57.656C207.837 57.624 208.525 57.608 208.877 57.608C209.901 57.608 210.941 57.656 211.997 57.752C213.053 57.816 214.077 57.976 215.069 58.232C216.093 58.488 217.053 58.856 217.949 59.336C218.877 59.816 219.725 60.44 220.493 61.208L227.501 56.504C226.285 54.84 224.909 53.544 223.373 52.616C221.837 51.656 220.205 50.936 218.477 50.456C216.749 49.976 214.941 49.672 213.053 49.544C211.197 49.416 209.325 49.352 207.437 49.352C206.445 49.352 205.309 49.432 204.029 49.592C202.781 49.72 201.501 49.944 200.189 50.264C198.909 50.584 197.645 51 196.397 51.512C195.181 52.024 194.093 52.664 193.133 53.432C192.173 54.2 191.405 55.096 190.829 56.12C190.253 57.112 189.965 58.264 189.965 59.576C189.965 61.08 190.333 62.376 191.069 63.464C191.805 64.552 192.781 65.48 193.997 66.248C195.213 67.016 196.589 67.64 198.125 68.12C199.661 68.6 201.213 69 202.781 69.32C204.381 69.608 205.917 69.848 207.389 70.04C208.893 70.2 210.205 70.344 211.325 70.472C211.645 70.504 212.269 70.568 213.197 70.664C214.157 70.76 215.149 70.904 216.173 71.096C217.197 71.256 218.109 71.48 218.909 71.768C219.709 72.056 220.109 72.408 220.109 72.824C220.109 73.176 219.853 73.48 219.341 73.736C218.829 73.96 218.173 74.152 217.373 74.312C216.573 74.44 215.693 74.536 214.733 74.6C213.773 74.664 212.829 74.712 211.901 74.744C211.005 74.776 210.189 74.792 209.453 74.792C208.749 74.792 208.253 74.792 207.965 74.792C206.749 74.792 205.549 74.744 204.365 74.648C203.181 74.52 202.029 74.296 200.909 73.976C199.789 73.624 198.733 73.144 197.741 72.536C196.749 71.928 195.853 71.112 195.053 70.088L187.709 74.648ZM194.669 68.888L192.365 66.536C191.245 65.704 190.365 64.728 189.725 63.608C189.085 62.456 188.765 61.112 188.765 59.576C188.765 58.104 189.069 56.808 189.677 55.688C190.317 54.536 191.149 53.544 192.173 52.712C193.197 51.88 194.365 51.176 195.677 50.6C196.989 49.992 198.333 49.512 199.709 49.16C201.085 48.808 202.445 48.552 203.789 48.392C205.133 48.232 206.349 48.152 207.437 48.152C209.325 48.152 211.229 48.216 213.149 48.344C215.069 48.44 216.941 48.728 218.765 49.208C220.621 49.688 222.397 50.424 224.093 51.416C225.789 52.408 227.373 53.8 228.845 55.592C229.837 56.584 230.621 57.416 231.197 58.088C231.773 58.728 232.221 59.272 232.541 59.72C232.893 60.168 233.149 60.536 233.309 60.824C233.469 61.08 233.629 61.32 233.789 61.544L227.645 65.672C227.805 65.832 227.981 65.976 228.173 66.104C228.397 66.2 228.701 66.408 229.085 66.728C229.469 67.048 229.965 67.512 230.573 68.12C231.213 68.696 232.061 69.528 233.117 70.616C233.885 71.416 234.493 72.44 234.941 73.688C235.389 74.936 235.613 76.248 235.613 77.624C235.613 79.064 235.261 80.344 234.557 81.464C233.853 82.584 232.941 83.56 231.821 84.392C230.701 85.224 229.421 85.928 227.981 86.504C226.541 87.08 225.085 87.544 223.613 87.896C222.141 88.248 220.701 88.504 219.293 88.664C217.917 88.824 216.717 88.904 215.693 88.904C213.805 88.904 211.885 88.904 209.933 88.904C207.981 88.904 206.061 88.744 204.173 88.424C202.317 88.104 200.509 87.576 198.749 86.84C196.989 86.104 195.373 84.984 193.901 83.48C192.653 82.328 191.597 81.32 190.733 80.456C189.901 79.56 189.181 78.76 188.573 78.056C187.997 77.32 187.501 76.648 187.085 76.04C186.701 75.432 186.333 74.84 185.981 74.264L194.669 68.888Z" fill="#031BBD"/>
</g>
<defs>
<filter id="filter0_dd_144_202" x="0.601624" y="0.151978" width="280.334" height="96.752" filterUnits="userSpaceOnUse" color-interpolation-filters="sRGB">
<feFlood flood-opacity="0" result="BackgroundImageFix"/>
<feColorMatrix in="SourceAlpha" type="matrix" values="0 0 0 0 0 0 0 0 0 0 0 0 0 0 0 0 0 0 127 0" result="hardAlpha"/>
<feOffset dy="4"/>
<feGaussianBlur stdDeviation="2"/>
<feComposite in2="hardAlpha" operator="out"/>
<feColorMatrix type="matrix" values="0 0 0 0 0 0 0 0 0 0 0 0 0 0 0 0 0 0 0.25 0"/>
<feBlend mode="normal" in2="BackgroundImageFix" result="effect1_dropShadow_144_202"/>
<feColorMatrix in="SourceAlpha" type="matrix" values="0 0 0 0 0 0 0 0 0 0 0 0 0 0 0 0 0 0 127 0" result="hardAlpha"/>
<feOffset dy="4"/>
<feGaussianBlur stdDeviation="2"/>
<feComposite in2="hardAlpha" operator="out"/>
<feColorMatrix type="matrix" values="0 0 0 0 0 0 0 0 0 0 0 0 0 0 0 0 0 0 0.25 0"/>
<feBlend mode="normal" in2="effect1_dropShadow_144_202" result="effect2_dropShadow_144_202"/>
<feBlend mode="normal" in="SourceGraphic" in2="effect2_dropShadow_144_202" result="shape"/>
</filter>
</defs>
</svg>
